<?xml version="1.0" encoding="utf-8"?>
<!-- Generator: Adobe Illustrator 21.0.0, SVG Export Plug-In . SVG Version: 6.00 Build 0)  -->
<svg version="1.1" id="Camada_1" xmlns="http://www.w3.org/2000/svg" xmlns:xlink="http://www.w3.org/1999/xlink" x="0px" y="0px"
	 viewBox="0 0 296 90" style="enable-background:new 0 0 296 90;" xml:space="preserve">
<style type="text/css">
	.st0{fill:#FFFFFF;}
	.st1{fill:#B10327;}
	.st2{fill:#396EAE;}
	.st3{fill:#A0A2A5;}
	.st4{clip-path:url(#SVGID_2_);fill:url(#SVGID_3_);}
	.st5{clip-path:url(#SVGID_5_);fill:url(#SVGID_6_);}
	.st6{clip-path:url(#SVGID_8_);fill:url(#SVGID_9_);}
</style>
<g>
	<path class="st0" d="M3.6,9.8L5,40.4L5.4,49c5.1,2.1,10.7,3.3,16.6,3.3c5.9,0,11.5-1.2,16.6-3.3l0.4-8.6l1.4-30.6H3.6z"/>
	<path class="st0" d="M22,53.3c-5.9,0-11.5-1.1-16.9-3.4l-0.5-0.2L2.7,8.9h38.6l-1.9,40.8l-0.5,0.2C33.5,52.1,27.8,53.3,22,53.3
		 M6.3,48.4c5,2,10.2,3,15.7,3c5.4,0,10.7-1,15.7-3l1.7-37.7H4.6L6.3,48.4z"/>
	<path class="st1" d="M22,52.3c5.9,0,11.5-1.2,16.6-3.3l0.4-8.6C33.7,42.6,28,43.8,22,43.8c-6,0-11.7-1.2-16.9-3.5L5.4,49
		C10.5,51.2,16.1,52.3,22,52.3"/>
	<path class="st2" d="M38.9,40.4l1.4-30.6H3.6L5,40.4c5.2,2.2,10.9,3.4,16.9,3.4C28,43.8,33.7,42.6,38.9,40.4"/>
	<polygon class="st0" points="33.6,34.4 34.4,33.1 28.1,26.8 34.4,20.5 33.6,19.2 25,21.5 22.7,12.9 21.2,12.9 18.9,21.5 10.3,19.2 
		9.5,20.5 15.8,26.8 9.5,33.1 10.3,34.4 18.9,32.1 21.2,40.7 22.7,40.7 25,32.1 	"/>
	<path class="st0" d="M117.8,39.7c-0.1,0.1-0.3,0.3-0.4,0.4c-0.7,0.7-1.5,1.4-2.5,1.9c-0.9,0.6-2,1-3.2,1.3
		c-1.2,0.3-2.6,0.5-4.2,0.5c-2,0-3.7-0.4-5.3-1.1c-1.6-0.7-2.9-1.7-4-3c-1.1-1.2-2-2.7-2.6-4.4c-0.6-1.7-0.9-3.5-0.9-5.5
		c0-1.9,0.3-3.7,0.9-5.4c0.6-1.7,1.5-3.2,2.6-4.5c1.1-1.3,2.5-2.3,4.1-3.1c1.6-0.7,3.4-1.1,5.4-1.1c2.5,0,4.8,0.6,6.6,1.7
		c1.2,0.8,2.4,1.7,3.4,2.9l6-6c-1.7-1.9-3.7-3.4-6-4.6c-2.9-1.4-6.4-2.2-10.4-2.2c-3.3,0-6.3,0.6-9,1.8c-2.7,1.2-5,2.8-6.9,4.8
		c-1.9,2-3.4,4.4-4.5,7.1c-1.1,2.7-1.6,5.7-1.6,8.8c0,3.2,0.5,6.2,1.6,8.9c1.1,2.7,2.6,5,4.5,7c1.9,2,4.2,3.5,6.9,4.6
		c2.7,1.1,5.7,1.7,8.9,1.7c1.9,0,3.8-0.2,5.6-0.7c1.8-0.5,3.5-1.1,5-1.9c1.5-0.8,3-1.8,4.2-2.8c0.5-0.4,1-0.9,1.5-1.4L117.8,39.7z"
		/>
	<path class="st0" d="M80.9,42.3c0.8-2.1,1.2-4.5,1.2-7V8.8h-9.1v25.3c0,1.5-0.1,2.8-0.4,4c-0.3,1.2-0.8,2.3-1.5,3.1
		c-0.7,0.9-1.6,1.6-2.7,2c-1.1,0.5-2.5,0.7-4,0.7c-1.6,0-3-0.2-4.1-0.7c-1.1-0.5-2-1.2-2.7-2c-0.7-0.9-1.2-1.9-1.5-3.1
		c-0.3-1.2-0.4-2.5-0.4-4V8.8h-9v26.5c0,2.5,0.4,4.9,1.2,7c0.8,2.1,2,3.9,3.5,5.4c1.5,1.5,3.4,2.7,5.6,3.5c2.2,0.8,4.7,1.2,7.4,1.2
		c2.7,0,5.2-0.4,7.4-1.3c2.2-0.8,4.1-2,5.6-3.5C78.9,46.2,80.1,44.4,80.9,42.3"/>
	<path class="st0" d="M157.9,44.5c0.8-1.6,1.3-3.3,1.3-5.2c0-2.2-0.4-4.1-1.1-5.6c-0.7-1.5-1.7-2.8-2.8-3.9c-1.2-1-2.5-1.9-4-2.6
		c-1.5-0.7-3.1-1.2-4.6-1.6c-2.8-0.6-5-1.4-6.5-2.3c-1.7-1-2.5-2.3-2.5-3.9c0-0.6,0.2-1.3,0.6-1.8c0.4-0.5,0.8-1,1.4-1.4
		c0.6-0.4,1.2-0.7,1.9-0.9c0.7-0.2,1.4-0.3,2.2-0.3c1.1,0,2.1,0.1,3.1,0.4c1,0.3,1.8,0.6,2.6,1c0.8,0.4,1.5,0.8,2.2,1.3
		c0.5,0.4,1,0.7,1.4,1l5.1-5.6c-0.4-0.3-0.8-0.8-1.4-1.3c-0.7-0.6-1.7-1.3-2.8-1.9c-1.2-0.6-2.6-1.1-4.2-1.6
		c-1.6-0.4-3.6-0.7-5.7-0.7c-2.6,0-4.9,0.4-6.8,1c-1.9,0.7-3.5,1.6-4.8,2.8c-1.3,1.2-2.2,2.6-2.9,4.1c-0.6,1.5-0.9,3.2-0.9,5
		c0,1.6,0.3,3,0.8,4.3c0.5,1.3,1.3,2.4,2.3,3.4c1,1,2.2,1.9,3.5,2.6c1.4,0.7,2.9,1.3,4.5,1.7c3.4,0.9,5.9,1.8,7.5,2.7
		c1.7,1,2.5,2.3,2.5,4.1c0,0.8-0.2,1.6-0.6,2.2c-0.4,0.6-0.9,1.2-1.6,1.6c-0.6,0.4-1.4,0.8-2.1,1c-0.8,0.2-1.6,0.3-2.3,0.3
		c-1.3,0-2.5-0.2-3.7-0.5c-1.1-0.3-2.2-0.8-3.1-1.3c-0.9-0.5-1.8-1.1-2.6-1.8c-0.6-0.5-1.2-1-1.7-1.6l-5.7,6.2
		c0.7,0.8,1.6,1.6,2.6,2.3c1.1,0.8,2.4,1.6,3.8,2.3c1.4,0.7,3,1.2,4.7,1.6c1.7,0.4,3.7,0.6,5.8,0.6c2.3,0,4.4-0.3,6.4-1
		c2-0.7,3.7-1.6,5.1-2.8C155.9,47.5,157.1,46.1,157.9,44.5"/>
	<path class="st0" d="M16.7,57.5h-2.2v8.1c0,2.7-1.4,4.2-3.8,4.2c-2.5,0-4-1.6-4-4.2v-8.1H4.4v8.1c0,2.9,1.6,6.2,6.2,6.2
		c3.8,0,6-2.3,6-6.2V57.5z"/>
	<polygon class="st0" points="31.3,71.5 31.3,57.4 29.1,57.4 29.1,66.9 21.6,57.4 19.8,57.4 19.8,71.5 22,71.5 22,61.2 30,71.5 	"/>
	<rect x="34.6" y="57.4" class="st0" width="2.2" height="14"/>
	<polygon class="st0" points="49.8,57.4 45.3,69.1 40.7,57.4 38.2,57.4 44,71.5 46.5,71.5 52.4,57.4 	"/>
	<polygon class="st0" points="64.8,59.6 64.8,57.4 54.4,57.4 54.4,71.5 64.8,71.5 64.8,69.2 56.7,69.2 56.7,65.5 64.5,65.5 
		64.5,63.4 56.7,63.4 56.7,59.6 	"/>
	<path class="st0" d="M77.6,71.5h2.8l-4.5-5.1l0.4-0.1c3-0.6,3.5-3,3.5-4.3c0-2.3-1.5-4.5-5-4.6c-1.1,0-2.3,0-3.4,0
		c-1.1,0-2.1,0-3.2,0v14h2.3v-4.8h3L77.6,71.5z M70.4,59.5h4.4c1.9,0,2.7,1.3,2.7,2.6c0,1.3-0.8,2.6-2.7,2.6h-4.4V59.5z"/>
	<path class="st0" d="M87.9,63.1c-1.7-0.2-3.4-0.5-3.4-2.1c0-1,0.8-2.2,3.2-2.2c1.6,0,2.9,0.8,3.5,1.5l1.8-0.9
		c-0.9-1.7-2.7-2.5-5.4-2.5c-2.7,0-5.4,1.3-5.4,4c0,3.1,2.6,3.8,5.5,4.2c0.9,0.1,3.6,0.4,3.6,2.4c0,1.5-1.4,2.4-3.6,2.4
		c-2,0-3.5-0.8-4.2-2.2l-1.9,1c1,2.2,2.9,3.2,6,3.2c2.8,0,5.9-1.2,5.9-4.4C93.6,64.4,91.3,63.5,87.9,63.1"/>
	<rect x="96.2" y="57.4" class="st0" width="2.2" height="14"/>
	<path class="st0" d="M107.1,57.4h-5.5v14h5.5c2.1,0,3.9-0.7,5.1-1.9c1.3-1.3,2-3.2,1.9-5.2C114.1,61.1,112.2,57.4,107.1,57.4
		 M110.6,68c-0.8,0.9-2,1.3-3.5,1.3h-3.2v-9.8h3.2c3.4,0,4.7,2.6,4.8,4.7C111.9,65.8,111.5,67.1,110.6,68z"/>
	<path class="st0" d="M126.3,68.7l1.2,2.7h2.5l-6.3-14H121l-6.3,14h2.4l1.2-2.7H126.3z M122.3,59.7l3.1,7h-6.1L122.3,59.7z"/>
	<path class="st0" d="M137.1,57.4h-5.5v14h5.5c2.1,0,3.9-0.7,5.1-1.9c1.3-1.3,2-3.2,1.9-5.2C144.1,61.1,142.2,57.4,137.1,57.4
		 M140.6,68c-0.8,0.9-2,1.3-3.5,1.3h-3.2v-9.8h3.2c3.4,0,4.7,2.6,4.8,4.7C141.9,65.8,141.5,67.1,140.6,68z"/>
	<polygon class="st0" points="156.9,59.6 156.9,57.4 146.5,57.4 146.5,71.5 156.9,71.5 156.9,69.2 148.7,69.2 148.7,65.5 
		156.6,65.5 156.6,63.4 148.7,63.4 148.7,59.6 	"/>
	<path class="st0" d="M8.8,75.2H4.4v11.2h4.4c1.7,0,3.1-0.5,4.1-1.5c1-1,1.6-2.5,1.5-4.2C14.4,78.2,12.9,75.2,8.8,75.2 M11.5,83.6
		c-0.7,0.7-1.6,1-2.7,1H6.3V77h2.5c2.7,0,3.7,2,3.7,3.7C12.6,81.9,12.2,82.9,11.5,83.6z"/>
	<polygon class="st0" points="24,77 24,75.2 15.6,75.2 15.6,86.4 24,86.4 24,84.6 17.5,84.6 17.5,81.7 23.7,81.7 23.7,80 17.5,80 
		17.5,77 	"/>
	<path class="st0" d="M36,84.9c-1.9,0-4.1-1.1-4.1-4c0-1.2,0.4-2.3,1.2-3c0.7-0.7,1.7-1.1,2.9-1.1c1.1,0,2,0.4,2.8,1l1.3-1.2
		c-1.1-1.1-2.5-1.6-4-1.6c-1.8,0-3.2,0.6-4.3,1.6c-1.1,1.1-1.7,2.6-1.7,4.3c0,4.3,3.2,5.8,6,5.8c1.6,0,3.1-0.5,4.2-1.6l-1.3-1.3
		C38.1,84.5,37,84.9,36,84.9"/>
	<path class="st0" d="M50.2,84.3l1,2.2h2.1l-5-11.2H46l-5,11.2H43l1-2.2H50.2z M47.1,77.2l2.3,5.4h-4.7L47.1,77.2z"/>
	<polygon class="st0" points="62.2,86.4 64.4,86.4 60.4,80.8 64.3,75.2 62.1,75.2 59.2,79.6 56.2,75.2 54.1,75.2 58,80.8 54,86.4 
		56.2,86.4 59.2,82 	"/>
	<rect x="65.9" y="75.2" class="st0" width="1.9" height="11.2"/>
	<path class="st0" d="M78.2,84.3l1,2.2h2.1l-5-11.2H74l-5,11.2h2.1l1-2.2H78.2z M75.1,77.2l2.3,5.4h-4.7L75.1,77.2z"/>
	<path class="st0" d="M86.8,79.7c-1.3-0.2-2.7-0.4-2.7-1.6c0-0.8,0.7-1.7,2.5-1.7c1.3,0,2.3,0.6,2.8,1.2l1.5-0.8
		c-0.9-1.7-2.9-2.1-4.3-2.1c-2.1,0-4.3,1-4.3,3.2c0,2.5,2.1,3.1,4.4,3.4c1.9,0.2,2.8,0.8,2.8,1.8c0,1.2-1,1.9-2.8,1.9
		c-1.6,0-2.8-0.7-3.3-1.8l-1.6,0.8c0.8,1.8,2.3,2.6,4.8,2.6c2.3,0,4.7-0.9,4.7-3.5C91.3,80.7,89.5,80,86.8,79.7"/>
	<path class="st0" d="M101.9,75.2h-4.4v11.2h4.4c1.7,0,3.1-0.5,4.1-1.5c1-1,1.6-2.5,1.5-4.2C107.5,78.2,106,75.2,101.9,75.2
		 M104.6,83.6c-0.7,0.7-1.6,1-2.7,1h-2.5V77h2.5c2.7,0,3.7,2,3.7,3.7C105.7,81.9,105.3,82.9,104.6,83.6z"/>
	<path class="st0" d="M118.7,76.6c-1-1-2.5-1.6-4.1-1.6c-4,0-5.8,3.1-5.8,5.9c0,2.9,1.8,5.8,5.8,5.8c3.9,0,5.7-2.9,5.8-5.8
		C120.4,79.2,119.8,77.7,118.7,76.6 M114.6,85c-2.8,0-3.9-2.1-3.9-4c0-1.2,0.4-2.4,1.2-3.2c0.7-0.7,1.6-1.1,2.8-1.1
		c1.1,0,2,0.4,2.7,1.1c0.8,0.8,1.2,1.9,1.2,3.2C118.4,82.8,117.4,85,114.6,85z"/>
	<path class="st0" d="M131,79.7c-1.3-0.2-2.7-0.4-2.7-1.6c0-0.8,0.7-1.7,2.5-1.7c1.3,0,2.3,0.6,2.8,1.2l1.5-0.8
		c-0.9-1.7-2.9-2.1-4.3-2.1c-2.1,0-4.3,1-4.3,3.2c0,2.5,2.1,3.1,4.4,3.4c1.9,0.2,2.8,0.8,2.8,1.8c0,1.2-1,1.9-2.8,1.9
		c-1.6,0-2.8-0.7-3.3-1.8l-1.6,0.8c0.8,1.8,2.3,2.6,4.8,2.6c2.3,0,4.7-0.9,4.7-3.5C135.6,80.7,133.8,80,131,79.7"/>
	<path class="st0" d="M146.9,75.2H145v6.5c0,2.1-1.1,3.3-2.9,3.3c-1.9,0-3.1-1.2-3.1-3.3v-6.5h-1.9v6.5c0,2.3,1.3,5,5,5
		c3,0,4.8-1.9,4.8-5V75.2z"/>
	<polygon class="st0" points="149.1,75.2 149.1,86.4 156.9,86.4 156.9,84.7 151,84.7 151,75.2 	"/>
	<path class="st3" d="M225.8,32c16.6-10.4,48.5-24.4,58.1,1.8c0.1,0.1,0.8-0.1,0.8-0.2c-9.8-26.7-43-11.8-59.6-1.4
		C225,32.2,225.7,32.1,225.8,32"/>
	<path class="st3" d="M206.7,81.3c-5.5-1.4-10.2-4.7-12-10.2c-1.6-5,0.3-10.5,3.1-14.7c7.4-11,19.6-19.5,30.9-26.2
		c0.3-0.2-0.5-0.1-0.6,0c-11.6,6.9-23.8,15.6-31.4,26.9c-2.9,4.4-4.1,9.8-2.5,14.9c1.7,5.2,6.8,8.3,11.8,9.5
		C206.3,81.6,206.9,81.3,206.7,81.3"/>
	<path class="st3" d="M233.9,57.5C234,71.4,224.6,83,210,81.8c-4.9-0.4-9.8-2.5-12.9-6.4c-3.3-4.1-3.3-9.5-1.7-14.2
		c0,0-0.7,0-0.8,0.2c-1.9,5.8-1.2,11.8,3.5,16.1c3.9,3.6,9.6,4.8,14.8,4.6c5-0.2,10.2-2,14-5.3c5.8-4.9,8-12.1,7.9-19.5
		C234.7,57.3,233.9,57.4,233.9,57.5"/>
	<g>
		<defs>
			<path id="SVGID_1_" d="M217.9,11.3L217.9,11.3C217.9,11.3,217.9,11.3,217.9,11.3L217.9,11.3z"/>
		</defs>
		<clipPath id="SVGID_2_">
			<use xlink:href="#SVGID_1_"  style="overflow:visible;"/>
		</clipPath>
		
			<linearGradient id="SVGID_3_" gradientUnits="userSpaceOnUse" x1="-2891.0811" y1="-14011.3516" x2="-2890.9333" y2="-14011.3516" gradientTransform="matrix(0.2013 0 0 2.948000e-02 799.7788 424.3394)">
			<stop  offset="0" style="stop-color:#396EAE"/>
			<stop  offset="0.18" style="stop-color:#3980BD"/>
			<stop  offset="0.63" style="stop-color:#3A90CC"/>
			<stop  offset="0.88" style="stop-color:#397AB8"/>
			<stop  offset="1" style="stop-color:#397AB8"/>
		</linearGradient>
		<rect x="217.9" y="11.3" class="st4" width="0" height="0"/>
	</g>
	<g>
		<defs>
			<path id="SVGID_4_" d="M267.4,69.8c2.5-0.1,5.1-0.6,7.5-1.4c0.7-0.2,1.4-0.5,2-0.9c2.4-0.9,4.7-2.2,6.8-3.8
				c3.3-2.6,5.8-6.1,7.6-9.9c-1.4,4-3.8,7.5-7,10.4c-4.3,3.9-9.5,5.6-14.8,5.6C268.8,69.9,268.1,69.9,267.4,69.8z M226.6,80.9
				c9-6.3,11.9-17.4,10-27.7c1,4.2,1.1,8.6,0.4,12.8c-1.1,6.6-4.8,12.4-10.4,16.1c-4.4,2.9-9.5,4.2-14.7,4.3
				C217.2,85.7,222.4,83.8,226.6,80.9z M209.9,82.9c-3.8-0.1-8.4-1.3-11.9-4c-3.5-2.7-5.6-6.5-5.8-10.9c-0.2-4.4,1.5-8.4,3.9-11.8
				c5.7-8.2,13.9-14.9,22.1-20.6c3,2,5.4,4.8,7.3,7.8c4.4,6.9,5.9,15.8,4.1,23.7c-0.6,2.7-1.7,5.3-3.3,7.6c-1.3,1.9-3.3,3.9-4.8,4.9
				c-0.5,0.3-1,0.6-1.5,0.9c-0.2,0.1-0.4,0.2-0.6,0.3c-0.1,0-0.5,0.2-0.5,0.3c-0.5,0.2-1.1,0.5-1.6,0.7c-0.1,0-0.3,0.1-0.4,0.1
				c-0.3,0.1-0.6,0.2-0.9,0.3c-0.2,0.1-1.3,0.3-1.3,0.3c-0.5,0.1-1,0.2-1.5,0.2c-0.9,0.1-1.3,0.1-2.1,0.1
				C210.7,82.9,210.4,82.9,209.9,82.9z M290.1,52.4c2.7-7,2.7-15,0-21.9c2,4.5,2.9,9.5,2.4,14.5c-0.7,6.1-3.3,11.8-7.4,16
				C287.2,58.5,288.9,55.5,290.1,52.4z M198.6,15.1c0.4-0.1,0.7-0.1,1.1-0.2c-1.2,5.4-2.4,11.1-3.6,16.4c-0.1,0.3,0.9-0.1,1-0.2
				c6.3-2.7,14.3-3.5,20.9-1.1c-1.2-0.3-2.4-0.5-3.7-0.6c0.6,0-1.5-0.1-1.5-0.1c-1.1-0.1-2.2-0.1-3.3,0c-3.9,0.2-7.6,0.9-11.2,2.3
				c-1.3,0.5-2.5,1-3.6,1.7C195.9,27.2,197.2,21.2,198.6,15.1z M220.5,7.7c-4.6,0.1-9.4,1.5-14,2.4c-3.8,0.8-7.6,1.6-11.4,2.4
				c-0.9,0.2-2.7,0.9-2.9,2c-1.9,8.6-3.8,17.2-5.5,25.9c-0.5,2.8,5.4,1,6.3-0.1c4.4-5.5,10.7-7.7,16.8-7.4c0.1,0,0.1,0,0.2,0
				c0,0,0.1,0,0.2,0c0.1,0,0.2,0,0.3,0c1.4,0.2,2.6,0.4,3.9,0.8c-1.9,1.3-3.8,2.7-5.6,4.1c-4.8,3.7-9.4,7.7-13.5,12.1
				c-3.1,3.3-5.9,6.8-7.8,10.9c-1.9,4.2-2.4,9.3-0.7,13.7c1.6,4.3,5.1,7.4,9.1,9.3c3.6,1.8,7.5,2.6,11.6,2.7
				c12.8,1.1,26.2-4.8,30.1-17.8c2.5-8.2,0.9-17.3-3.1-24.7c-1.4-2.5-3.1-4.9-5.2-7c-1.7-1.9-3.6-3.5-5.8-4.8
				c5-3.2,10.3-6.1,15.7-8.5c2.8-1.3,6.2-2.5,8.7-3.3c3-0.9,5.7-1.6,8.4-2c4.9-0.8,9.8-0.9,14.7,0.9c4.8,1.8,8.7,5.3,11.2,9.8
				c3.7,6.6,4.3,14.3,2.4,21.6c-0.7,2.6-1.9,5.3-3.4,7.7c-3.7,5.1-9.3,8.4-15.9,6.7c-12-3.1-13.5-16.7-13.7-17.9
				c-0.3-2.8-0.2-5.7,0.3-8.5c0.3-1.8,0.8-3.7,1.5-5.4c0.3-0.6,0.6-1.2,0.9-1.8c0.2-0.3,2.6-2.5,1.1-3.2c-1.4-0.6-3.6-0.2-4.8,0.7
				c-4.7,3.3-5.8,10-5.9,15.4c-0.2,7.2,1.8,14.8,7.3,19.7c3.2,2.8,7,4.6,11,5.3c6.4,1.5,13,0.9,18.9-2.6
				c7.6-4.4,12.4-13.1,12.4-21.9c0.9-7-1-14-5-19.8c-4.1-6-10.5-9.6-17.6-10.6c-8.8-1.7-18.7,0.6-26.8,3.3
				c-8.9,3-17.3,7.3-25.2,12.3c-6.7-3.2-15-2.8-21.9-0.2c1.1-5.1,2.2-10.5,3.4-15.5c1.8-0.4,3.7-0.8,5.5-1.2c2.6-0.6,4.6-1,7.2-1.5
				c1-0.2,2-0.4,3.1-0.5c0.4-0.1,0.8-0.1,1.1-0.2c0.1,0,0.3,0,0.3,0c0,0-0.1,0-0.1,0c0,0,0.1,0,0.1,0c0.3,0,0.2,0,0,0
				c1.5-0.1,3.4-0.5,4.3-1.8C223.2,8.2,221.5,7.7,220.5,7.7C220.5,7.7,220.5,7.7,220.5,7.7z"/>
		</defs>
		<clipPath id="SVGID_5_">
			<use xlink:href="#SVGID_4_"  style="overflow:visible;"/>
		</clipPath>
		
			<linearGradient id="SVGID_6_" gradientUnits="userSpaceOnUse" x1="-1186.205" y1="1299.2795" x2="-1186.0571" y2="1299.2795" gradientTransform="matrix(743.3756 0 0 541.8465 881980.625 -703962.375)">
			<stop  offset="0" style="stop-color:#A3A8AD"/>
			<stop  offset="0.17" style="stop-color:#B4B9BF"/>
			<stop  offset="0.63" style="stop-color:#C5CCD1"/>
			<stop  offset="0.76" style="stop-color:#B4B9BF"/>
			<stop  offset="0.88" style="stop-color:#A3A8AD"/>
			<stop  offset="1" style="stop-color:#A3A8AD"/>
		</linearGradient>
		<rect x="184.8" y="7.7" class="st5" width="109.8" height="80.1"/>
	</g>
	<path class="st0" d="M253,81.6h-4.2l-0.7,1.5h-1.6l3.6-8h1.6l3.6,8h-1.6L253,81.6z M250.9,76.7l-1.5,3.4h3L250.9,76.7z"/>
	<polygon class="st0" points="264.5,75.1 266,75.1 266,83.1 265,83.1 265,83.1 260.8,77.7 260.8,83.1 259.3,83.1 259.3,75.1 
		260.6,75.1 264.5,80 	"/>
	<path class="st0" d="M278.5,79.1c0,2.1-1.3,4.1-4.1,4.1c-2.8,0-4.1-2-4.1-4.1c0-2.1,1.3-4.2,4.1-4.2
		C277.2,74.9,278.5,77,278.5,79.1 M271.8,79.1c0,1.3,0.7,2.7,2.6,2.7c1.9,0,2.6-1.4,2.6-2.7c0-1.3-0.7-2.9-2.6-2.9
		C272.5,76.3,271.8,77.8,271.8,79.1z"/>
	<path class="st0" d="M288,77c-0.3-0.5-1-0.9-1.9-0.9c-1.1,0-1.7,0.5-1.7,1.1c0,0.7,0.8,0.9,1.8,1c1.7,0.2,3.2,0.6,3.2,2.5
		c0,1.8-1.6,2.5-3.4,2.5c-1.6,0-2.9-0.5-3.5-2l1.3-0.6c0.4,0.9,1.3,1.3,2.3,1.3c0.9,0,1.8-0.3,1.8-1.2c0-0.8-0.8-1.1-1.8-1.2
		c-1.6-0.2-3.1-0.6-3.1-2.4c0-1.6,1.6-2.3,3.1-2.3c1.2,0,2.5,0.4,3.1,1.6L288,77z"/>
	<g>
		<defs>
			<path id="SVGID_7_" d="M195.6,77.3c-3.3-3.3-4.4-7.9-3.7-12.5c0.7-4.3,3-8,5.8-11.3c6.3-7.6,14.3-14,22.7-19.4
				c4,2.2,7.2,5.9,9.5,10.2c6.2,11.6,5.2,28.6-7.1,35.8c-3.6,2.1-7.8,3.2-12.1,3.2C205.1,83.2,199.5,81.3,195.6,77.3z M196.6,15.7
				c-1.9,8.2-3.7,16.2-5.4,24.5c-0.1,0.3,1.4,0.3,1.6,0.1c4.9-6,12.4-8.8,20-8.4c2.3,0.1,4.5,0.7,6.5,1.6
				c-5.7,3.7-11.1,7.9-16.1,12.5c-6.5,5.9-14.1,13.7-13,23.3c1.1,9.3,10.8,13.7,19.1,14.2c9.9,0.6,19.7-4.1,23.8-13.4
				c5.4-12.3,0.3-30.2-11.8-36.6c0,0,0,0-0.1,0c1.5-1,3.1-1.9,4.6-2.9c11.1-6.6,23.9-12.5,37-13.1c5.5-0.2,11,0.9,15.6,4.1
				c4.8,3.4,8,8.9,9.3,14.6c3.3,14.4-8.3,35.8-25.4,30.1C255,64,250.5,57.9,249,50.5c-1.1-5.4-0.9-11.9,1.7-16.9
				c0.1-0.1-1.3-0.5-1.5-0.2c-3.1,6-3,13.9-1,20.1c2.3,7.5,8.7,12.6,16.3,13.9c15.2,2.7,25.6-13,25.2-26.6c-0.2-6.2-2.8-12.5-7.1-17
				c-3.4-3.5-8.1-5.5-12.9-6.4c-11.6-2-23.8,2.1-34.2,6.9c-5.3,2.5-10.5,5.3-15.5,8.5c-3.5-1.5-7.6-1.7-11.4-1.5
				c-5.8,0.4-11.3,2.5-15.5,6.5c1.6-7.5,3.3-15.2,5-22.7c0-0.1-0.1-0.1-0.3-0.1C197.6,15.3,196.7,15.4,196.6,15.7z"/>
		</defs>
		<clipPath id="SVGID_8_">
			<use xlink:href="#SVGID_7_"  style="overflow:visible;"/>
		</clipPath>
		
			<linearGradient id="SVGID_9_" gradientUnits="userSpaceOnUse" x1="-1186.2566" y1="1299.0568" x2="-1186.1089" y2="1299.0568" gradientTransform="matrix(689.8292 0 0 466.3514 818503.5 -605767.1875)">
			<stop  offset="0" style="stop-color:#E0E5E8"/>
			<stop  offset="0.28" style="stop-color:#E0E5E8"/>
			<stop  offset="0.4" style="stop-color:#DCE3E8"/>
			<stop  offset="0.51" style="stop-color:#DBE2E8"/>
			<stop  offset="0.57" style="stop-color:#E2E9EF"/>
			<stop  offset="0.63" style="stop-color:#E9EFF3"/>
			<stop  offset="0.68" style="stop-color:#E9EFF3"/>
			<stop  offset="0.85" style="stop-color:#EBF1F6"/>
			<stop  offset="1" style="stop-color:#EBF1F6"/>
		</linearGradient>
		<rect x="189.1" y="15.3" class="st6" width="101.9" height="68.9"/>
	</g>
</g>
</svg>
